<svg width="16" height="16" viewBox="0 0 16 16" fill="none" xmlns="http://www.w3.org/2000/svg">
<path d="M8.00008 0C4.93208 0 1.74097 0.691406 1.74097 0.691406L1.73836 0.69401C1.4364 0.754458 1.16467 0.917567 0.969329 1.15563C0.773986 1.3937 0.667073 1.69205 0.666748 2V6C0.666748 12.932 7.34774 15.8294 7.34774 15.8294C7.54698 15.9412 7.77161 16 8.00008 16C8.22767 15.9995 8.45135 15.9408 8.64982 15.8294H8.65243C8.65243 15.8294 15.3334 12.932 15.3334 6V2C15.3336 1.69123 15.2266 1.39198 15.0307 1.15333C14.8347 0.914674 14.5621 0.751411 14.2592 0.691406C14.2592 0.691406 11.0681 0 8.00008 0ZM12.0001 4C12.1706 4 12.3411 4.06498 12.4714 4.19531C12.7321 4.45598 12.7321 4.87735 12.4714 5.13802L7.43107 10.1784C7.30574 10.3037 7.13638 10.3737 6.95972 10.3737C6.78305 10.3737 6.61303 10.3037 6.48836 10.1784L4.18628 7.8763C3.92561 7.61564 3.92561 7.19426 4.18628 6.93359C4.44695 6.67293 4.86832 6.67293 5.12899 6.93359L6.95972 8.76432L11.5287 4.19531C11.6591 4.06498 11.8296 4 12.0001 4Z" fill="#0D0F2B"/>
</svg>
